<svg width="238" height="239" viewBox="0 0 238 239" fill="none" xmlns="http://www.w3.org/2000/svg">
<circle cx="119.159" cy="119.5" r="118.522" fill="url(#paint0_linear_17_63)"/>
<path d="M76.2056 145.423C74.1062 143.327 70.7024 143.327 68.603 145.423C66.5036 147.518 66.5036 150.916 68.603 153.012L84.924 169.305C87.0233 171.401 90.4271 171.401 92.5265 169.305C94.6259 167.209 94.6259 163.811 92.5265 161.715L76.2056 145.423Z" fill="white"/>
<path d="M98.7635 155.49L82.4445 139.199C79.7627 136.522 76.1991 135.046 72.4074 135.046C68.6158 135.046 65.0522 136.522 62.3704 139.199C59.6886 141.873 58.2139 145.43 58.2139 149.215C58.2139 153.001 59.6886 156.561 62.3704 159.235L78.6924 175.529C81.3712 178.203 84.9378 179.679 88.7264 179.679C92.515 179.679 96.0847 178.203 98.7635 175.529C101.445 172.852 102.92 169.295 102.92 165.509C102.92 161.724 101.445 158.167 98.7635 155.49ZM92.5302 169.304C92.4542 169.38 92.3782 169.452 92.2991 169.519C92.1988 169.61 92.0924 169.695 91.9859 169.777C91.9799 169.783 91.9707 169.789 91.9647 169.792C91.916 169.832 91.8674 169.868 91.8157 169.899C91.8126 169.902 91.8126 169.905 91.8096 169.905C91.767 169.935 91.7275 169.965 91.6849 169.99C91.6089 170.041 91.5359 170.087 91.4599 170.132C91.3079 170.22 91.1528 170.302 90.9917 170.378C90.9126 170.415 90.8336 170.451 90.7515 170.481C90.6785 170.512 90.6055 170.539 90.5325 170.566C90.5112 170.572 90.493 170.582 90.4717 170.588C90.4261 170.603 90.3775 170.618 90.3288 170.633C90.2923 170.642 90.2589 170.654 90.2224 170.663C90.1707 170.679 90.116 170.694 90.0643 170.706C89.9883 170.727 89.9123 170.745 89.8393 170.761C89.8302 170.764 89.8241 170.764 89.815 170.767C89.7511 170.779 89.6872 170.788 89.6264 170.8C89.6082 170.8 89.5899 170.806 89.5747 170.809L89.3832 170.837C89.2616 170.852 89.1399 170.861 89.0183 170.867C88.921 170.873 88.8267 170.876 88.7295 170.876H88.6869C88.6595 170.876 88.6352 170.876 88.6109 170.873C88.5531 170.873 88.4953 170.873 88.4376 170.867C88.3129 170.861 88.1882 170.852 88.0636 170.833C88.0058 170.827 87.948 170.821 87.8933 170.812C87.869 170.806 87.8446 170.803 87.8203 170.797C87.7534 170.788 87.6865 170.776 87.6227 170.761C87.5558 170.748 87.4889 170.733 87.425 170.715C87.3581 170.7 87.2943 170.682 87.2304 170.663C87.1483 170.642 87.0693 170.615 86.9933 170.591C86.9142 170.563 86.8382 170.536 86.7622 170.503C86.7348 170.494 86.7044 170.481 86.677 170.469C86.6041 170.442 86.5341 170.412 86.4642 170.378C86.303 170.302 86.148 170.22 85.9959 170.132C85.8804 170.066 85.7679 169.993 85.6584 169.914C85.6007 169.877 85.5459 169.838 85.4912 169.792C85.3787 169.71 85.2662 169.619 85.1598 169.525C85.0807 169.452 85.0017 169.38 84.9256 169.304L68.6067 153.013C66.5056 150.915 66.5056 147.519 68.6067 145.421C68.6888 145.339 68.7739 145.257 68.8621 145.181C68.8773 145.169 68.8955 145.154 68.9107 145.142C68.9716 145.087 69.0354 145.033 69.1023 144.987C69.1327 144.96 69.1631 144.936 69.1935 144.914C69.2118 144.899 69.23 144.887 69.2482 144.875C69.3121 144.826 69.379 144.781 69.4489 144.735C69.4489 144.735 69.452 144.732 69.455 144.732C69.5553 144.665 69.6557 144.605 69.7591 144.547C69.8594 144.489 69.9628 144.435 70.0662 144.386C70.1574 144.341 70.2516 144.298 70.3459 144.262C70.431 144.225 70.5223 144.189 70.6104 144.159C70.6986 144.128 70.7898 144.098 70.878 144.071C70.9692 144.043 71.0574 144.019 71.1486 143.998C71.1851 143.989 71.2216 143.979 71.2581 143.973C71.2642 143.973 71.2733 143.97 71.2794 143.97C71.3524 143.952 71.4253 143.94 71.4983 143.928C71.5044 143.928 71.5105 143.928 71.5165 143.928C71.5682 143.919 71.623 143.91 71.6747 143.901C71.6838 143.901 71.6929 143.897 71.702 143.897C71.7111 143.897 71.7203 143.894 71.7294 143.894C71.7385 143.894 71.7476 143.891 71.7568 143.891C71.7841 143.888 71.8115 143.885 71.8389 143.882C71.927 143.873 72.0182 143.864 72.1064 143.861C72.2068 143.855 72.3071 143.852 72.4074 143.852C72.5078 143.852 72.602 143.852 72.6963 143.861C72.8179 143.867 72.9396 143.876 73.0612 143.891C73.0764 143.894 73.0946 143.897 73.1098 143.897C73.1189 143.897 73.125 143.901 73.1342 143.901C73.1706 143.907 73.2102 143.913 73.2467 143.919H73.2527C73.271 143.922 73.2862 143.925 73.3044 143.928C73.3683 143.94 73.4321 143.949 73.4929 143.961C73.5021 143.964 73.5081 143.964 73.5173 143.967C73.5386 143.97 73.5598 143.976 73.5781 143.982C73.6328 143.992 73.6875 144.007 73.7423 144.022C73.797 144.034 73.8487 144.049 73.9004 144.064C73.9825 144.086 74.0615 144.113 74.1406 144.137C74.2196 144.165 74.2957 144.192 74.3717 144.225C74.399 144.234 74.4295 144.247 74.4568 144.259C74.5298 144.286 74.5997 144.316 74.6697 144.35C74.8308 144.423 74.9859 144.505 75.1379 144.596C75.2535 144.662 75.366 144.735 75.4754 144.814C75.5332 144.851 75.5879 144.89 75.6427 144.936C75.6427 144.939 75.6518 144.942 75.6548 144.945C75.6852 144.966 75.7156 144.987 75.746 145.015C75.8251 145.075 75.9011 145.139 75.9741 145.203C76.0531 145.276 76.1322 145.348 76.2082 145.424L92.5302 161.718C94.6282 163.813 94.6282 167.209 92.5302 169.307V169.304Z" fill="white"/>
<path d="M54.7351 175.003C53.6854 173.955 51.9835 173.955 50.9338 175.003C49.8841 176.051 49.8841 177.75 50.9338 178.798L59.0932 186.943C60.1429 187.991 61.8448 187.991 62.8945 186.943C63.9442 185.895 63.9442 184.196 62.8945 183.148L54.7351 175.003Z" fill="white"/>
<path d="M69.1309 176.922L60.973 168.775C58.7989 166.608 55.9104 165.412 52.8363 165.412C49.7622 165.412 46.8737 166.608 44.6996 168.775C40.2147 173.256 40.2147 180.541 44.6996 185.021L52.8606 193.165C55.0347 195.335 57.9232 196.531 60.9973 196.531C64.0714 196.531 66.9599 195.335 69.1309 193.165C73.6189 188.688 73.6189 181.4 69.1309 176.922ZM62.8977 186.942C62.7669 187.073 62.624 187.188 62.475 187.285C62.4021 187.334 62.323 187.379 62.247 187.422C62.1679 187.461 62.0889 187.498 62.0068 187.531C61.8852 187.58 61.7605 187.619 61.6358 187.653C61.5933 187.662 61.5537 187.671 61.5112 187.68C61.3409 187.71 61.1676 187.728 60.9973 187.728C60.827 187.728 60.6537 187.71 60.4834 187.68C60.4196 187.668 60.3557 187.649 60.2949 187.634C60.2311 187.616 60.1702 187.598 60.1064 187.577C60.0669 187.561 60.0273 187.549 59.9878 187.531C59.9513 187.516 59.9118 187.501 59.8753 187.483C59.8327 187.464 59.7902 187.443 59.7476 187.422C59.6685 187.379 59.5925 187.334 59.5196 187.285C59.3675 187.188 59.2277 187.073 59.0969 186.942L50.9359 178.795C49.8869 177.748 49.8869 176.048 50.9359 175.001C51.0028 174.934 51.0697 174.874 51.1396 174.816C51.3525 174.643 51.5836 174.509 51.8268 174.412C51.8876 174.388 51.9484 174.367 52.0123 174.345C52.0731 174.324 52.137 174.306 52.1978 174.291C52.2403 174.282 52.2799 174.273 52.3224 174.263C52.4927 174.233 52.666 174.215 52.8363 174.215C53.0066 174.215 53.1799 174.233 53.3502 174.263C53.414 174.276 53.4779 174.294 53.5387 174.309C53.6025 174.327 53.6633 174.345 53.7272 174.367C53.7667 174.382 53.8093 174.397 53.8488 174.412C53.8883 174.427 53.9279 174.446 53.9674 174.464C54.0252 174.491 54.086 174.518 54.1407 174.552C54.1498 174.555 54.1559 174.561 54.165 174.564C54.2137 174.594 54.2654 174.625 54.314 174.658C54.3444 174.676 54.3748 174.697 54.4052 174.722C54.4478 174.749 54.4904 174.782 54.533 174.816C54.6029 174.874 54.6728 174.934 54.7367 175.001L62.8977 183.148C63.9467 184.195 63.9467 185.895 62.8977 186.942Z" fill="white"/>
<path d="M108.805 77.2284C103.815 80.6159 98.7618 84.3251 93.687 88.3865C91.2393 90.3412 88.7886 92.378 86.3348 94.5028C84.4131 96.1661 82.9141 98.1149 81.859 100.194C80.5333 102.795 79.8978 105.594 79.9951 108.28L72.573 115.69L53.3594 134.87C49.4005 138.822 43.1429 136.303 43.7389 130.991C45.545 114.952 54.1834 89.3001 89.8406 80.197C95.4627 78.7613 101.76 77.7383 108.805 77.2284Z" fill="white"/>
<path d="M111.014 72.6784C106.486 72.9242 102.156 73.3735 98.0273 74.0321C79.5009 76.9674 65.0154 84.0216 54.8567 95.0765C44.0109 106.881 40.4412 120.856 39.3587 130.502C38.8905 134.655 40.952 138.473 44.6129 140.231C45.9903 140.896 47.4559 141.217 48.9215 141.217C51.6398 141.217 54.352 140.103 56.4743 137.982L81.1428 113.356C80.4374 111.774 80.0573 110.053 79.9935 108.28C79.8962 105.594 80.5317 102.795 81.8574 100.194L50.238 131.759C49.5357 132.46 48.8302 132.491 48.438 132.299C48.2829 132.226 48.0488 132.114 48.1187 131.483C49.0583 123.139 52.1171 111.082 61.3545 101.026C66.4141 95.5226 72.7963 91.1517 80.4587 87.9403C86.0747 85.5818 92.3779 83.8425 99.35 82.7316L93.6853 88.3865C98.7601 84.3251 103.814 80.6159 108.803 77.2284C111.287 75.5377 113.753 73.932 116.201 72.3991L111.014 72.6784Z" fill="white"/>
<path d="M169.924 88.2651C164.363 93.8137 155.347 93.8137 149.786 88.2651C144.225 82.7134 144.225 73.7104 149.786 68.1617C155.347 62.61 164.363 62.61 169.924 68.1617C175.485 73.7104 175.485 82.7134 169.924 88.2651Z" fill="white"/>
<path d="M80.4594 87.9403C74.816 92.8728 71.4379 99.7722 71.1825 106.896C71.1369 108.183 71.1916 109.449 71.3497 110.684L81.8581 100.194C82.9132 98.1149 84.4122 96.1662 86.3339 94.5028C88.7876 92.378 91.2384 90.3413 93.6861 88.3865L99.3507 82.7316C92.3786 83.8425 86.0754 85.5818 80.4594 87.9403ZM80.4594 87.9403C74.816 92.8728 71.4379 99.7722 71.1825 106.896C71.1369 108.183 71.1916 109.449 71.3497 110.684L81.8581 100.194C82.9132 98.1149 84.4122 96.1662 86.3339 94.5028C88.7876 92.378 91.2384 90.3413 93.6861 88.3865L99.3507 82.7316C92.3786 83.8425 86.0754 85.5818 80.4594 87.9403ZM80.4594 87.9403C74.816 92.8728 71.4379 99.7722 71.1825 106.896C71.1369 108.183 71.1916 109.449 71.3497 110.684L81.8581 100.194C82.9132 98.1149 84.4122 96.1662 86.3339 94.5028C88.7876 92.378 91.2384 90.3413 93.6861 88.3865L99.3507 82.7316C92.3786 83.8425 86.0754 85.5818 80.4594 87.9403ZM80.4594 87.9403C74.816 92.8728 71.4379 99.7722 71.1825 106.896C71.1369 108.183 71.1916 109.449 71.3497 110.684L81.8581 100.194C82.9132 98.1149 84.4122 96.1662 86.3339 94.5028C88.7876 92.378 91.2384 90.3413 93.6861 88.3865L99.3507 82.7316C92.3786 83.8425 86.0754 85.5818 80.4594 87.9403ZM192.813 52.1045C187.41 44.5373 178.711 40.0207 169.546 40.0207C166.357 40.0207 163.173 40.561 160.084 41.6234C147.52 45.9518 135.078 51.5035 123.101 58.1207C114.484 62.8802 106.101 68.2012 98.0281 74.0321C95.2611 76.0264 92.5306 78.0844 89.8397 80.197C86.6896 82.6708 83.5943 85.2236 80.5598 87.8522C80.5263 87.8826 80.4929 87.9099 80.4594 87.9403C74.816 92.8728 71.4379 99.7722 71.1825 106.896C71.1369 108.183 71.1916 109.449 71.3497 110.684C71.5656 112.418 71.9761 114.096 72.5721 115.69C73.1133 117.144 73.8126 118.531 74.6579 119.83C75.4606 121.068 76.3972 122.228 77.4614 123.29L114.7 160.462C115.858 161.618 117.135 162.626 118.507 163.476C119.829 164.295 121.243 164.969 122.724 165.488C124.351 166.059 126.059 166.438 127.823 166.623C128.629 166.705 129.444 166.748 130.265 166.748C137.757 166.748 145.024 163.33 150.199 157.372C150.415 157.126 150.628 156.877 150.843 156.628C153.428 153.626 155.94 150.566 158.375 147.458C160.458 144.799 162.483 142.104 164.447 139.372C170.13 131.483 175.323 123.306 179.982 114.904C186.61 102.947 192.168 90.5264 196.504 77.9842C199.569 69.1179 198.225 59.6839 192.813 52.1045ZM188.17 75.1127C183.655 88.177 176.71 104.116 166.089 121.126C164.529 123.624 162.89 126.144 161.169 128.681C156.061 136.221 150.214 143.913 143.534 151.604C143.309 151.865 143.078 152.117 142.841 152.363C142.752 152.454 142.664 152.545 142.573 152.633C142.527 152.679 142.482 152.724 142.436 152.77C142.211 152.989 141.98 153.204 141.746 153.41C141.621 153.52 141.497 153.629 141.369 153.735C141.117 153.948 140.858 154.154 140.597 154.351C140.335 154.552 140.071 154.74 139.803 154.919C139.669 155.01 139.532 155.101 139.396 155.186C139.192 155.317 138.985 155.444 138.778 155.563C138.572 155.684 138.362 155.802 138.152 155.912C137.872 156.063 137.589 156.203 137.304 156.337C137.091 156.437 136.875 156.531 136.659 156.622C136.443 156.713 136.227 156.798 136.008 156.88C135.428 157.098 134.841 157.281 134.251 157.432C133.956 157.508 133.661 157.575 133.366 157.636C133.068 157.693 132.773 157.745 132.478 157.787C132.183 157.83 131.885 157.863 131.59 157.888C131.152 157.927 130.718 157.945 130.283 157.945H130.268C129.614 157.945 128.963 157.903 128.325 157.818C128.112 157.787 127.899 157.754 127.689 157.718C127.583 157.699 127.476 157.678 127.373 157.657C127.163 157.611 126.956 157.566 126.75 157.514C126.543 157.46 126.339 157.402 126.135 157.341C125.765 157.229 125.4 157.098 125.041 156.953C123.533 156.34 122.14 155.438 120.939 154.239L83.7007 117.065C82.603 115.969 81.7547 114.715 81.1466 113.356C80.4412 111.774 80.0611 110.053 79.9972 108.28C79.8999 105.594 80.5354 102.795 81.8611 100.194C82.9162 98.1149 84.4152 96.1662 86.3369 94.5028C88.7907 92.378 91.2414 90.3413 93.6891 88.3865C98.7639 84.3251 103.817 80.6159 108.807 77.2284C111.291 75.5377 113.757 73.932 116.205 72.3991C133.494 61.5658 149.706 54.5146 162.963 49.9464C163.103 49.8978 163.243 49.8523 163.383 49.8068C163.663 49.7157 163.939 49.6337 164.216 49.5579C164.493 49.482 164.769 49.4091 165.046 49.3454C166.153 49.0874 167.254 48.9295 168.336 48.8597C168.607 48.8445 168.877 48.8324 169.145 48.8263C169.282 48.8233 169.416 48.8233 169.549 48.8233C182.46 48.8233 192.804 61.7176 188.173 75.1127H188.17ZM80.4594 87.9403C74.816 92.8728 71.4379 99.7722 71.1825 106.896C71.1369 108.183 71.1916 109.449 71.3497 110.684L81.8581 100.194C82.9132 98.1149 84.4122 96.1662 86.3339 94.5028C88.7876 92.378 91.2384 90.3413 93.6861 88.3865L99.3507 82.7316C92.3786 83.8425 86.0754 85.5818 80.4594 87.9403ZM80.4594 87.9403C74.816 92.8728 71.4379 99.7722 71.1825 106.896C71.1369 108.183 71.1916 109.449 71.3497 110.684L81.8581 100.194C82.9132 98.1149 84.4122 96.1662 86.3339 94.5028C88.7876 92.378 91.2384 90.3413 93.6861 88.3865L99.3507 82.7316C92.3786 83.8425 86.0754 85.5818 80.4594 87.9403ZM80.4594 87.9403C74.816 92.8728 71.4379 99.7722 71.1825 106.896C71.1369 108.183 71.1916 109.449 71.3497 110.684L81.8581 100.194C82.9132 98.1149 84.4122 96.1662 86.3339 94.5028C88.7876 92.378 91.2384 90.3413 93.6861 88.3865L99.3507 82.7316C92.3786 83.8425 86.0754 85.5818 80.4594 87.9403Z" fill="white"/>
<path d="M169.924 88.265C164.363 93.8137 155.347 93.8137 149.786 88.265C144.225 82.7133 144.225 73.7104 149.786 68.1617C155.347 62.61 164.363 62.61 169.924 68.1617C175.485 73.7104 175.485 82.7133 169.924 88.265Z" fill="white"/>
<path d="M161.169 128.684C160.707 135.641 159.743 141.876 158.375 147.458C149.469 183.831 123.469 192.588 107.262 194.406C101.941 195.001 99.4173 188.754 103.376 184.802L122.724 165.488L130.28 157.945C130.714 157.945 131.149 157.927 131.587 157.888C131.882 157.863 132.18 157.83 132.475 157.788C132.77 157.745 133.065 157.693 133.363 157.636C133.658 157.575 133.953 157.508 134.248 157.432C134.837 157.281 135.424 157.098 136.005 156.88C136.224 156.798 136.44 156.713 136.656 156.622C136.872 156.531 137.087 156.437 137.3 156.337C137.586 156.203 137.869 156.063 138.149 155.912C138.358 155.799 138.568 155.681 138.775 155.563C138.982 155.444 139.189 155.317 139.392 155.186C139.529 155.101 139.666 155.01 139.8 154.919C140.067 154.737 140.332 154.549 140.593 154.351C140.855 154.154 141.113 153.948 141.366 153.735C141.493 153.629 141.618 153.52 141.743 153.41C141.977 153.204 142.208 152.989 142.433 152.77C142.478 152.724 142.524 152.679 142.57 152.633C142.661 152.545 142.749 152.454 142.837 152.363C143.074 152.117 143.306 151.865 143.531 151.604C150.211 143.913 156.058 136.221 161.166 128.684H161.169Z" fill="white"/>
<path d="M161.169 128.681C156.061 136.221 150.214 143.913 143.533 151.604C143.308 151.865 143.077 152.117 142.84 152.363C142.752 152.454 142.664 152.545 142.572 152.633C142.527 152.679 142.481 152.724 142.436 152.77C142.211 152.989 141.98 153.204 141.745 153.41C141.621 153.52 141.496 153.629 141.368 153.735C141.116 153.948 140.858 154.154 140.596 154.351C140.335 154.549 140.07 154.737 139.802 154.919C139.669 155.01 139.532 155.101 139.395 155.186C139.191 155.317 138.985 155.444 138.778 155.563C138.571 155.681 138.361 155.799 138.151 155.912C137.872 156.063 137.589 156.203 137.303 156.337C137.09 156.437 136.874 156.531 136.659 156.622C136.443 156.713 136.227 156.798 136.008 156.88C135.427 157.098 134.84 157.281 134.25 157.432C133.955 157.508 133.66 157.575 133.366 157.636C133.068 157.693 132.773 157.745 132.478 157.787C132.183 157.83 131.885 157.863 131.59 157.888C131.152 157.927 130.717 157.945 130.282 157.945H130.267C129.613 157.945 128.963 157.903 128.324 157.818C128.111 157.787 127.899 157.754 127.689 157.718C127.582 157.699 127.476 157.678 127.372 157.657C127.163 157.611 126.956 157.566 126.749 157.514C126.542 157.46 126.339 157.402 126.135 157.341C125.764 157.229 125.399 157.098 125.04 156.953L118.509 163.476L100.262 181.691C96.9968 184.948 96.112 189.598 98.0063 193.529C99.6026 196.844 102.896 198.844 106.599 198.844C106.979 198.844 107.368 198.823 107.757 198.78C124.113 196.944 152.996 187.974 162.659 148.505C163.37 145.591 163.972 142.541 164.45 139.372C164.961 136.03 165.335 132.554 165.572 128.976L166.092 121.126C164.532 123.624 162.893 126.144 161.172 128.681H161.169ZM132.201 162.253C132.508 162.222 132.812 162.186 133.107 162.143C133.448 162.095 133.806 162.034 134.199 161.958L134.253 161.946C134.643 161.867 135.001 161.785 135.348 161.694C136.108 161.5 136.853 161.263 137.552 161.002C137.826 160.899 138.1 160.792 138.376 160.674C138.644 160.562 138.915 160.443 139.167 160.325C139.562 160.14 139.918 159.961 140.234 159.791C140.481 159.657 140.727 159.521 140.967 159.381C141.21 159.241 141.463 159.087 141.748 158.908C141.828 158.856 141.91 158.804 141.989 158.753H142.074L143.254 157.863C143.57 157.627 143.892 157.369 144.193 157.114C144.342 156.989 144.488 156.865 144.631 156.737L144.664 156.71C144.938 156.467 145.224 156.203 145.51 155.924L145.665 155.769C145.783 155.657 145.899 155.535 146.014 155.417C146.322 155.098 146.604 154.789 146.866 154.488C149.417 151.55 151.901 148.548 154.312 145.497C154.239 145.804 154.166 146.11 154.09 146.414C153.206 150.029 152.123 153.435 150.843 156.628C146.805 166.711 140.818 174.655 132.97 180.325C123.803 186.948 113.662 189.258 106.772 190.032C106.137 190.102 106.024 189.868 105.951 189.714C105.763 189.322 105.79 188.615 106.493 187.914L127.822 166.623L132.201 162.253Z" fill="white"/>
<defs>
<linearGradient id="paint0_linear_17_63" x1="119.159" y1="0.978241" x2="119.159" y2="238.022" gradientUnits="userSpaceOnUse">
<stop stop-color="#3C80F6"/>
<stop offset="1" stop-color="#9232E9"/>
</linearGradient>
</defs>
</svg>
