<svg width="229" height="228" viewBox="0 0 229 228" fill="none" xmlns="http://www.w3.org/2000/svg">
<path d="M53.6518 151.182C50.6406 148.176 45.7584 148.176 42.7472 151.182C39.736 154.188 39.736 159.062 42.7472 162.068L66.1569 185.437C69.1681 188.443 74.0503 188.443 77.0615 185.437C80.0727 182.431 80.0727 177.557 77.0615 174.551L53.6518 151.182Z" fill="black"/>
<path d="M86.0075 165.621L62.6006 142.255C58.7539 138.415 53.6426 136.299 48.2041 136.299C42.7656 136.299 37.6542 138.415 33.8075 142.255C29.9609 146.09 27.8457 151.193 27.8457 156.622C27.8457 162.051 29.9609 167.158 33.8075 170.994L57.2188 194.365C61.0611 198.2 66.1768 200.316 71.6109 200.316C77.0451 200.316 82.1652 198.2 86.0075 194.365C89.8541 190.525 91.9693 185.422 91.9693 179.993C91.9693 174.564 89.8541 169.461 86.0075 165.621ZM77.0669 185.435C76.9578 185.544 76.8488 185.649 76.7354 185.744C76.5915 185.875 76.4389 185.997 76.2862 186.114C76.2775 186.123 76.2644 186.132 76.2557 186.136C76.1859 186.193 76.1161 186.245 76.042 186.289C76.0376 186.293 76.0376 186.297 76.0333 186.297C75.9722 186.341 75.9155 186.384 75.8544 186.419C75.7454 186.493 75.6407 186.559 75.5317 186.624C75.3136 186.75 75.0912 186.868 74.8601 186.977C74.7467 187.029 74.6333 187.081 74.5155 187.125C74.4109 187.168 74.3062 187.207 74.2015 187.246C74.171 187.255 74.1448 187.268 74.1143 187.277C74.0489 187.299 73.9791 187.32 73.9093 187.342C73.857 187.355 73.809 187.373 73.7567 187.386C73.6825 187.408 73.604 187.429 73.5299 187.447C73.4209 187.477 73.3118 187.503 73.2072 187.525C73.1941 187.529 73.1854 187.529 73.1723 187.534C73.0807 187.551 72.9891 187.564 72.9019 187.582C72.8757 187.582 72.8495 187.59 72.8277 187.595L72.553 187.634C72.3785 187.656 72.2041 187.669 72.0296 187.677C71.8901 187.686 71.7549 187.691 71.6153 187.691H71.5542C71.515 187.691 71.4801 187.691 71.4452 187.686C71.3623 187.686 71.2795 187.686 71.1966 187.677C71.0178 187.669 70.839 187.656 70.6602 187.63C70.5773 187.621 70.4945 187.612 70.416 187.599C70.3811 187.59 70.3462 187.586 70.3113 187.577C70.2153 187.564 70.1194 187.547 70.0278 187.525C69.9319 187.508 69.8359 187.486 69.7443 187.46C69.6484 187.438 69.5568 187.412 69.4652 187.386C69.3474 187.355 69.2341 187.316 69.125 187.281C69.0116 187.242 68.9026 187.203 68.7936 187.155C68.7543 187.142 68.7107 187.125 68.6714 187.107C68.5668 187.068 68.4665 187.024 68.3662 186.977C68.135 186.868 67.9126 186.75 67.6945 186.624C67.5288 186.528 67.3674 186.424 67.2104 186.31C67.1276 186.258 67.0491 186.202 66.9706 186.136C66.8092 186.019 66.6478 185.888 66.4952 185.753C66.3818 185.649 66.2684 185.544 66.1594 185.435L42.7525 162.069C39.7389 159.06 39.7389 154.188 42.7525 151.18C42.8702 151.062 42.9924 150.945 43.1188 150.836C43.1406 150.819 43.1668 150.797 43.1886 150.779C43.2758 150.701 43.3674 150.623 43.4634 150.557C43.507 150.518 43.5506 150.483 43.5942 150.453C43.6204 150.431 43.6465 150.414 43.6727 150.396C43.7643 150.327 43.8602 150.261 43.9606 150.196C43.9606 150.196 43.9649 150.192 43.9693 150.192C44.1132 150.096 44.2571 150.009 44.4054 149.926C44.5493 149.843 44.6976 149.765 44.8459 149.695C44.9767 149.63 45.1119 149.569 45.2471 149.517C45.3692 149.465 45.5001 149.412 45.6266 149.369C45.753 149.325 45.8839 149.282 46.0103 149.243C46.1412 149.203 46.2677 149.168 46.3985 149.138C46.4508 149.125 46.5032 149.112 46.5555 149.103C46.5642 149.103 46.5773 149.099 46.586 149.099C46.6907 149.073 46.7954 149.055 46.9 149.038C46.9088 149.038 46.9175 149.038 46.9262 149.038C47.0004 149.025 47.0789 149.012 47.153 148.999C47.1661 148.999 47.1792 148.994 47.1922 148.994C47.2053 148.994 47.2184 148.99 47.2315 148.99C47.2446 148.99 47.2577 148.986 47.2707 148.986C47.31 148.981 47.3493 148.977 47.3885 148.973C47.515 148.96 47.6458 148.946 47.7723 148.942C47.9162 148.933 48.0601 148.929 48.2041 148.929C48.348 148.929 48.4832 148.929 48.6184 148.942C48.7928 148.951 48.9673 148.964 49.1417 148.986C49.1635 148.99 49.1897 148.994 49.2115 148.994C49.2246 148.994 49.2333 148.999 49.2464 148.999C49.2987 149.007 49.3554 149.016 49.4078 149.025H49.4165C49.4427 149.029 49.4645 149.034 49.4906 149.038C49.5822 149.055 49.6738 149.068 49.761 149.086C49.7741 149.09 49.7828 149.09 49.7959 149.094C49.8264 149.099 49.857 149.108 49.8831 149.116C49.9616 149.129 50.0401 149.151 50.1187 149.173C50.1972 149.19 50.2713 149.212 50.3454 149.234C50.4632 149.264 50.5766 149.303 50.69 149.338C50.8034 149.377 50.9124 149.417 51.0214 149.465C51.0607 149.478 51.1043 149.495 51.1435 149.512C51.2482 149.552 51.3485 149.595 51.4488 149.643C51.68 149.748 51.9024 149.865 52.1205 149.996C52.2862 150.091 52.4476 150.196 52.6046 150.309C52.6874 150.361 52.7659 150.418 52.8444 150.483C52.8444 150.488 52.8575 150.492 52.8619 150.496C52.9055 150.527 52.9491 150.557 52.9927 150.597C53.1061 150.684 53.2151 150.775 53.3198 150.866C53.4332 150.971 53.5466 151.075 53.6556 151.184L77.0669 174.555C80.0761 177.559 80.0761 182.431 77.0669 185.44V185.435Z" fill="black"/>
<path d="M22.8581 193.61C21.3525 192.107 18.9114 192.107 17.4058 193.61C15.9002 195.113 15.9002 197.55 17.4058 199.053L29.1091 210.736C30.6147 212.239 33.0558 212.239 34.5614 210.736C36.067 209.233 36.067 206.796 34.5614 205.293L22.8581 193.61Z" fill="black"/>
<path d="M43.506 196.363L31.8048 184.678C28.6865 181.569 24.5433 179.854 20.134 179.854C15.7248 179.854 11.5816 181.569 8.46331 184.678C2.03046 191.104 2.03046 201.553 8.46331 207.979L20.1689 219.66C23.2872 222.773 27.4304 224.488 31.8397 224.488C36.2489 224.488 40.3921 222.773 43.506 219.66C49.9432 213.238 49.9432 202.785 43.506 196.363ZM34.5654 210.735C34.3779 210.922 34.1729 211.088 33.9592 211.227C33.8546 211.297 33.7412 211.362 33.6321 211.423C33.5187 211.479 33.4054 211.532 33.2876 211.58C33.1131 211.649 32.9343 211.706 32.7555 211.754C32.6945 211.767 32.6378 211.78 32.5767 211.793C32.3325 211.836 32.0839 211.863 31.8397 211.863C31.5954 211.863 31.3468 211.836 31.1026 211.793C31.011 211.776 30.9194 211.749 30.8322 211.728C30.7406 211.702 30.6534 211.675 30.5618 211.645C30.5051 211.623 30.4484 211.606 30.3917 211.58C30.3394 211.558 30.2827 211.536 30.2304 211.51C30.1693 211.484 30.1082 211.453 30.0472 211.423C29.9338 211.362 29.8248 211.297 29.7201 211.227C29.502 211.088 29.3014 210.922 29.1139 210.735L17.4083 199.049C15.9036 197.547 15.9036 195.109 17.4083 193.607C17.5042 193.512 17.6002 193.424 17.7005 193.342C18.0057 193.094 18.3372 192.902 18.6861 192.763C18.7733 192.728 18.8606 192.697 18.9521 192.667C19.0394 192.636 19.131 192.61 19.2182 192.589C19.2792 192.575 19.3359 192.562 19.397 192.549C19.6412 192.506 19.8898 192.48 20.134 192.48C20.3783 192.48 20.6269 192.506 20.8711 192.549C20.9627 192.567 21.0543 192.593 21.1415 192.615C21.2331 192.641 21.3203 192.667 21.4119 192.697C21.4686 192.719 21.5296 192.741 21.5863 192.763C21.643 192.784 21.6997 192.811 21.7564 192.837C21.8393 192.876 21.9265 192.915 22.005 192.963C22.0181 192.967 22.0268 192.976 22.0399 192.98C22.1097 193.024 22.1838 193.067 22.2536 193.115C22.2972 193.141 22.3408 193.172 22.3845 193.207C22.4455 193.246 22.5066 193.294 22.5676 193.342C22.6679 193.424 22.7682 193.512 22.8598 193.607L34.5654 205.293C36.0701 206.795 36.0701 209.233 34.5654 210.735Z" fill="black"/>
<path d="M100.408 53.3684C93.251 58.2272 86.0026 63.5474 78.7237 69.3728C75.2129 72.1766 71.6977 75.098 68.1782 78.1456C65.4218 80.5315 63.2717 83.3266 61.7584 86.3089C59.8569 90.0401 58.9454 94.0542 59.0849 97.9073L48.4391 108.535L20.8803 136.046C15.202 141.715 6.22648 138.101 7.08129 130.482C9.67188 107.477 22.0622 70.6833 73.2067 57.6263C81.2707 55.567 90.3028 54.0998 100.408 53.3684Z" fill="black"/>
<path d="M103.579 46.8421C97.0849 47.1948 90.8744 47.8391 84.9518 48.7839C58.3787 52.994 37.6017 63.1121 23.0307 78.9685C7.47408 95.9002 2.35396 115.945 0.801355 129.781C0.129721 135.737 3.08665 141.214 8.33761 143.735C10.3133 144.688 12.4154 145.15 14.5175 145.15C18.4165 145.15 22.3067 143.552 25.3509 140.509L60.7338 105.187C59.722 102.918 59.1768 100.45 59.0852 97.9073C58.9457 94.0542 59.8572 90.0401 61.7587 86.3089L16.4059 131.584C15.3985 132.589 14.3867 132.633 13.8241 132.359C13.6016 132.254 13.2658 132.093 13.3661 131.187C14.7138 119.219 19.1012 101.926 32.3507 87.5018C39.6078 79.6085 48.7621 73.3391 59.7525 68.7328C67.8077 65.3499 76.8486 62.8552 86.849 61.2618L78.724 69.3728C86.0029 63.5475 93.2513 58.2272 100.408 53.3684C103.971 50.9433 107.508 48.6402 111.019 46.4416L103.579 46.8421Z" fill="black"/>
<path d="M59.7523 68.7328C51.6578 75.8076 46.8124 85.7037 46.4461 95.922C46.3807 97.768 46.4592 99.5835 46.6859 101.355L61.7585 86.3089C63.2718 83.3266 65.4219 80.5315 68.1782 78.1456C71.6978 75.098 75.2129 72.1766 78.7238 69.3728L86.8488 61.2617C76.8484 62.8552 67.8075 65.3499 59.7523 68.7328ZM59.7523 68.7328C51.6578 75.8076 46.8124 85.7037 46.4461 95.922C46.3807 97.768 46.4592 99.5835 46.6859 101.355L61.7585 86.3089C63.2718 83.3266 65.4219 80.5315 68.1782 78.1456C71.6978 75.098 75.2129 72.1766 78.7238 69.3728L86.8488 61.2617C76.8484 62.8552 67.8075 65.3499 59.7523 68.7328ZM59.7523 68.7328C51.6578 75.8076 46.8124 85.7037 46.4461 95.922C46.3807 97.768 46.4592 99.5835 46.6859 101.355L61.7585 86.3089C63.2718 83.3266 65.4219 80.5315 68.1782 78.1456C71.6978 75.098 75.2129 72.1766 78.7238 69.3728L86.8488 61.2617C76.8484 62.8552 67.8075 65.3499 59.7523 68.7328ZM59.7523 68.7328C51.6578 75.8076 46.8124 85.7037 46.4461 95.922C46.3807 97.768 46.4592 99.5835 46.6859 101.355L61.7585 86.3089C63.2718 83.3266 65.4219 80.5315 68.1782 78.1456C71.6978 75.098 75.2129 72.1766 78.7238 69.3728L86.8488 61.2617C76.8484 62.8552 67.8075 65.3499 59.7523 68.7328ZM220.905 17.3323C213.155 6.4784 200.678 7.62939e-06 187.533 7.62939e-06C182.958 7.62939e-06 178.392 0.774976 173.961 2.29879C155.94 8.50725 138.094 16.4703 120.915 25.9615C108.555 32.7882 96.5308 40.4203 84.9516 48.7839C80.9829 51.6443 77.0665 54.5961 73.2068 57.6263C68.6885 61.1746 64.2487 64.8362 59.8962 68.6065C59.8482 68.6501 59.8003 68.6892 59.7523 68.7328C51.6578 75.8076 46.8124 85.7037 46.4461 95.922C46.3807 97.768 46.4592 99.5835 46.6859 101.355C46.9956 103.841 47.5844 106.249 48.4392 108.535C49.2155 110.62 50.2186 112.61 51.431 114.473C52.5824 116.25 53.9256 117.913 55.4521 119.437L108.864 172.753C110.526 174.412 112.358 175.857 114.325 177.076C116.222 178.252 118.25 179.218 120.374 179.963C122.707 180.781 125.158 181.325 127.688 181.591C128.843 181.708 130.012 181.769 131.19 181.769C141.936 181.769 152.359 176.867 159.782 168.321C160.092 167.968 160.397 167.611 160.707 167.254C164.414 162.948 168.016 158.56 171.51 154.101C174.497 150.287 177.402 146.421 180.219 142.503C188.37 131.187 195.819 119.458 202.501 107.407C212.008 90.2577 219.981 72.4422 226.2 54.4524C230.596 41.7351 228.668 28.2036 220.905 17.3323ZM214.246 50.3338C207.769 69.0724 197.808 91.934 182.574 116.332C180.337 119.916 177.986 123.529 175.518 127.169C168.191 137.984 159.804 149.016 150.222 160.048C149.899 160.423 149.568 160.784 149.228 161.137C149.101 161.268 148.975 161.398 148.844 161.524C148.779 161.59 148.713 161.655 148.648 161.72C148.325 162.034 147.994 162.343 147.658 162.639C147.479 162.796 147.3 162.952 147.117 163.105C146.755 163.41 146.384 163.706 146.009 163.989C145.634 164.276 145.255 164.546 144.871 164.803C144.679 164.933 144.483 165.064 144.287 165.186C143.994 165.373 143.698 165.556 143.401 165.726C143.105 165.9 142.804 166.07 142.503 166.226C142.102 166.444 141.696 166.644 141.286 166.836C140.981 166.98 140.671 167.115 140.361 167.245C140.052 167.376 139.742 167.498 139.428 167.615C138.595 167.929 137.753 168.19 136.907 168.408C136.484 168.517 136.061 168.612 135.638 168.699C135.211 168.782 134.788 168.856 134.365 168.917C133.942 168.978 133.514 169.026 133.091 169.061C132.463 169.117 131.84 169.143 131.216 169.143H131.194C130.256 169.143 129.323 169.083 128.407 168.961C128.102 168.917 127.797 168.869 127.496 168.817C127.343 168.791 127.19 168.76 127.042 168.73C126.741 168.665 126.445 168.599 126.148 168.525C125.852 168.447 125.559 168.364 125.267 168.277C124.735 168.116 124.212 167.929 123.697 167.72C121.534 166.84 119.536 165.547 117.814 163.828L64.4014 110.507C62.827 108.935 61.6102 107.137 60.7379 105.187C59.7261 102.918 59.181 100.45 59.0894 97.9073C58.9498 94.0542 59.8613 90.0401 61.7628 86.3089C63.2762 83.3266 65.4263 80.5315 68.1826 78.1456C71.7021 75.098 75.2173 72.1766 78.7281 69.3728C86.0071 63.5474 93.2555 58.2272 100.412 53.3684C103.975 50.9433 107.512 48.6402 111.023 46.4415C135.821 30.903 159.076 20.7892 178.091 14.2368C178.291 14.1671 178.492 14.1018 178.693 14.0365C179.094 13.9059 179.491 13.7884 179.888 13.6795C180.284 13.5707 180.681 13.4662 181.078 13.3747C182.666 13.0047 184.244 12.7783 185.797 12.6781C186.185 12.6564 186.573 12.639 186.957 12.6303C187.153 12.6259 187.345 12.6259 187.537 12.6259C206.055 12.6259 220.892 31.1207 214.25 50.3338H214.246ZM59.7523 68.7328C51.6578 75.8076 46.8124 85.7037 46.4461 95.922C46.3807 97.768 46.4592 99.5835 46.6859 101.355L61.7585 86.3089C63.2718 83.3266 65.4219 80.5315 68.1782 78.1456C71.6978 75.098 75.2129 72.1766 78.7238 69.3728L86.8488 61.2617C76.8484 62.8552 67.8075 65.3499 59.7523 68.7328ZM59.7523 68.7328C51.6578 75.8076 46.8124 85.7037 46.4461 95.922C46.3807 97.768 46.4592 99.5835 46.6859 101.355L61.7585 86.3089C63.2718 83.3266 65.4219 80.5315 68.1782 78.1456C71.6978 75.098 75.2129 72.1766 78.7238 69.3728L86.8488 61.2617C76.8484 62.8552 67.8075 65.3499 59.7523 68.7328ZM59.7523 68.7328C51.6578 75.8076 46.8124 85.7037 46.4461 95.922C46.3807 97.768 46.4592 99.5835 46.6859 101.355L61.7585 86.3089C63.2718 83.3266 65.4219 80.5315 68.1782 78.1456C71.6978 75.098 75.2129 72.1766 78.7238 69.3728L86.8488 61.2617C76.8484 62.8552 67.8075 65.3499 59.7523 68.7328Z" fill="black"/>
<path d="M188.073 69.1986C180.096 77.1573 167.165 77.1573 159.189 69.1986C151.212 61.2356 151.212 48.3224 159.189 40.3637C167.165 32.4007 180.096 32.4007 188.073 40.3637C196.05 48.3224 196.05 61.2356 188.073 69.1986Z" fill="black"/>
<path d="M175.517 127.173C174.854 137.152 173.472 146.095 171.509 154.101C158.735 206.272 121.442 218.833 98.1965 221.441C90.5643 222.294 86.9445 213.334 92.6228 207.666L120.374 179.963L131.211 169.144C131.835 169.144 132.459 169.117 133.087 169.061C133.51 169.026 133.937 168.978 134.36 168.917C134.783 168.856 135.206 168.782 135.634 168.7C136.057 168.612 136.48 168.517 136.903 168.408C137.749 168.19 138.59 167.929 139.424 167.615C139.738 167.498 140.047 167.376 140.357 167.245C140.666 167.115 140.976 166.98 141.281 166.836C141.691 166.645 142.097 166.444 142.498 166.227C142.799 166.065 143.1 165.896 143.397 165.726C143.693 165.556 143.99 165.373 144.282 165.186C144.478 165.064 144.674 164.934 144.866 164.803C145.25 164.542 145.63 164.272 146.005 163.989C146.38 163.706 146.75 163.41 147.112 163.105C147.296 162.953 147.474 162.796 147.653 162.639C147.989 162.343 148.32 162.034 148.643 161.72C148.709 161.655 148.774 161.59 148.839 161.525C148.97 161.398 149.097 161.268 149.223 161.137C149.563 160.784 149.895 160.423 150.218 160.049C159.799 149.016 168.186 137.984 175.513 127.173H175.517Z" fill="black"/>
<path d="M175.518 127.169C168.191 137.984 159.804 149.016 150.222 160.049C149.9 160.423 149.568 160.784 149.228 161.137C149.102 161.268 148.975 161.398 148.844 161.524C148.779 161.59 148.713 161.655 148.648 161.72C148.325 162.034 147.994 162.343 147.658 162.639C147.479 162.796 147.3 162.952 147.117 163.105C146.755 163.41 146.384 163.706 146.009 163.989C145.634 164.272 145.255 164.542 144.871 164.803C144.679 164.933 144.483 165.064 144.287 165.186C143.995 165.373 143.698 165.556 143.401 165.726C143.105 165.896 142.804 166.065 142.503 166.227C142.102 166.444 141.696 166.644 141.286 166.836C140.981 166.98 140.671 167.115 140.362 167.245C140.052 167.376 139.742 167.498 139.428 167.615C138.595 167.929 137.754 168.19 136.907 168.408C136.484 168.517 136.061 168.612 135.638 168.699C135.211 168.782 134.788 168.856 134.365 168.917C133.942 168.978 133.514 169.026 133.091 169.061C132.463 169.117 131.84 169.144 131.216 169.144H131.194C130.257 169.144 129.323 169.083 128.407 168.961C128.102 168.917 127.797 168.869 127.496 168.817C127.343 168.791 127.191 168.76 127.042 168.73C126.741 168.665 126.445 168.599 126.148 168.525C125.852 168.447 125.559 168.364 125.267 168.277C124.735 168.116 124.212 167.929 123.697 167.72L114.329 177.076L88.1573 203.203C83.4733 207.875 82.2042 214.545 84.9213 220.183C87.2109 224.937 91.9342 227.806 97.2462 227.806C97.7913 227.806 98.3496 227.776 98.9078 227.715C122.367 225.081 163.795 212.215 177.655 155.603C178.675 151.424 179.539 147.048 180.223 142.503C180.956 137.709 181.493 132.724 181.833 127.591L182.579 116.332C180.341 119.916 177.991 123.529 175.522 127.169H175.518ZM133.968 175.322C134.408 175.278 134.845 175.226 135.268 175.165C135.756 175.095 136.271 175.008 136.833 174.899L136.912 174.882C137.47 174.769 137.985 174.651 138.482 174.52C139.572 174.242 140.641 173.902 141.644 173.528C142.036 173.38 142.429 173.227 142.826 173.058C143.209 172.896 143.598 172.727 143.96 172.557C144.527 172.291 145.037 172.034 145.49 171.791C145.844 171.599 146.197 171.403 146.542 171.203C146.89 171.003 147.252 170.781 147.662 170.524C147.776 170.45 147.893 170.376 148.007 170.302H148.129L149.821 169.026C150.275 168.686 150.737 168.316 151.169 167.951C151.382 167.772 151.592 167.594 151.797 167.411L151.845 167.372C152.237 167.023 152.647 166.644 153.057 166.244L153.28 166.022C153.45 165.861 153.615 165.687 153.781 165.517C154.222 165.06 154.627 164.616 155.002 164.185C158.661 159.97 162.225 155.664 165.683 151.289C165.578 151.728 165.474 152.168 165.365 152.604C164.096 157.789 162.543 162.674 160.707 167.254C154.915 181.717 146.328 193.111 135.071 201.244C121.922 210.744 107.377 214.057 97.4948 215.167C96.5833 215.267 96.4219 214.932 96.3172 214.71C96.0468 214.148 96.0861 213.134 97.0935 212.128L127.688 181.591L133.968 175.322Z" fill="black"/>
</svg>
