<svg width="904" height="302" viewBox="0 0 904 302" fill="currentColor" xmlns="http://www.w3.org/2000/svg">
<path d="M53.4575 188.279C50.4462 185.273 45.5641 185.273 42.5529 188.279C39.5417 191.285 39.5417 196.159 42.5529 199.165L65.9626 222.534C68.9738 225.54 73.8559 225.54 76.8672 222.534C79.8784 219.528 79.8784 214.654 76.8672 211.648L53.4575 188.279Z" fill="currentColor"/>
<path d="M85.8131 202.718L62.4062 179.352C58.5596 175.512 53.4482 173.396 48.0097 173.396C42.5712 173.396 37.4598 175.512 33.6132 179.352C29.7666 183.187 27.6514 188.29 27.6514 193.719C27.6514 199.148 29.7666 204.255 33.6132 208.091L57.0244 231.462C60.8667 235.298 65.9825 237.413 71.4166 237.413C76.8507 237.413 81.9708 235.298 85.8131 231.462C89.6597 227.622 91.775 222.519 91.775 217.09C91.775 211.661 89.6597 206.558 85.8131 202.718ZM76.8725 222.532C76.7635 222.641 76.6545 222.746 76.5411 222.841C76.3972 222.972 76.2445 223.094 76.0919 223.212C76.0831 223.22 76.0701 223.229 76.0613 223.233C75.9916 223.29 75.9218 223.342 75.8476 223.386C75.8433 223.39 75.8433 223.394 75.8389 223.394C75.7779 223.438 75.7212 223.481 75.6601 223.516C75.5511 223.59 75.4464 223.656 75.3374 223.721C75.1193 223.847 74.8969 223.965 74.6657 224.074C74.5523 224.126 74.439 224.178 74.3212 224.222C74.2165 224.265 74.1119 224.304 74.0072 224.343C73.9767 224.352 73.9505 224.365 73.92 224.374C73.8545 224.396 73.7848 224.417 73.715 224.439C73.6627 224.452 73.6147 224.47 73.5623 224.483C73.4882 224.505 73.4097 224.526 73.3356 224.544C73.2265 224.574 73.1175 224.6 73.0128 224.622C72.9997 224.626 72.991 224.626 72.9779 224.631C72.8863 224.648 72.7948 224.661 72.7075 224.679C72.6814 224.679 72.6552 224.687 72.6334 224.692L72.3586 224.731C72.1842 224.753 72.0097 224.766 71.8353 224.775C71.6957 224.783 71.5605 224.788 71.421 224.788H71.3599C71.3207 224.788 71.2858 224.788 71.2509 224.783C71.168 224.783 71.0851 224.783 71.0023 224.775C70.8235 224.766 70.6447 224.753 70.4658 224.727C70.383 224.718 70.3001 224.709 70.2216 224.696C70.1867 224.687 70.1518 224.683 70.1169 224.674C70.021 224.661 69.925 224.644 69.8335 224.622C69.7375 224.605 69.6416 224.583 69.55 224.557C69.454 224.535 69.3624 224.509 69.2709 224.483C69.1531 224.452 69.0397 224.413 68.9307 224.378C68.8173 224.339 68.7083 224.3 68.5992 224.252C68.56 224.239 68.5164 224.222 68.4771 224.204C68.3724 224.165 68.2721 224.121 68.1718 224.074C67.9407 223.965 67.7183 223.847 67.5002 223.721C67.3345 223.625 67.1731 223.521 67.0161 223.407C66.9332 223.355 66.8547 223.299 66.7762 223.233C66.6149 223.116 66.4535 222.985 66.3008 222.85C66.1875 222.746 66.0741 222.641 65.965 222.532L42.5582 199.166C39.5445 196.157 39.5445 191.285 42.5582 188.277C42.6759 188.159 42.798 188.042 42.9245 187.933C42.9463 187.916 42.9725 187.894 42.9943 187.876C43.0815 187.798 43.1731 187.72 43.269 187.654C43.3126 187.615 43.3563 187.58 43.3999 187.55C43.426 187.528 43.4522 187.511 43.4784 187.493C43.57 187.424 43.6659 187.358 43.7662 187.293C43.7662 187.293 43.7706 187.289 43.7749 187.289C43.9189 187.193 44.0628 187.106 44.2111 187.023C44.355 186.94 44.5033 186.862 44.6516 186.792C44.7824 186.727 44.9176 186.666 45.0528 186.614C45.1749 186.562 45.3057 186.509 45.4322 186.466C45.5587 186.422 45.6895 186.379 45.816 186.34C45.9468 186.3 46.0733 186.266 46.2042 186.235C46.2565 186.222 46.3088 186.209 46.3612 186.2C46.3699 186.2 46.383 186.196 46.3917 186.196C46.4964 186.17 46.601 186.152 46.7057 186.135C46.7144 186.135 46.7232 186.135 46.7319 186.135C46.806 186.122 46.8845 186.109 46.9587 186.096C46.9717 186.096 46.9848 186.091 46.9979 186.091C47.011 186.091 47.0241 186.087 47.0372 186.087C47.0502 186.087 47.0633 186.083 47.0764 186.083C47.1157 186.078 47.1549 186.074 47.1942 186.07C47.3206 186.057 47.4515 186.043 47.578 186.039C47.7219 186.03 47.8658 186.026 48.0097 186.026C48.1536 186.026 48.2888 186.026 48.424 186.039C48.5985 186.048 48.7729 186.061 48.9474 186.083C48.9692 186.087 48.9954 186.091 49.0172 186.091C49.0303 186.091 49.039 186.096 49.0521 186.096C49.1044 186.104 49.1611 186.113 49.2134 186.122H49.2222C49.2483 186.126 49.2701 186.131 49.2963 186.135C49.3879 186.152 49.4795 186.165 49.5667 186.183C49.5798 186.187 49.5885 186.187 49.6016 186.192C49.6321 186.196 49.6626 186.205 49.6888 186.213C49.7673 186.226 49.8458 186.248 49.9243 186.27C50.0028 186.287 50.077 186.309 50.1511 186.331C50.2689 186.361 50.3822 186.401 50.4956 186.435C50.609 186.475 50.7181 186.514 50.8271 186.562C50.8663 186.575 50.91 186.592 50.9492 186.609C51.0539 186.649 51.1542 186.692 51.2545 186.74C51.4856 186.845 51.7081 186.962 51.9261 187.093C52.0919 187.189 52.2532 187.293 52.4102 187.406C52.4931 187.458 52.5716 187.515 52.6501 187.58C52.6501 187.585 52.6632 187.589 52.6675 187.593C52.7112 187.624 52.7548 187.654 52.7984 187.694C52.9118 187.781 53.0208 187.872 53.1255 187.963C53.2389 188.068 53.3523 188.172 53.4613 188.281L76.8725 211.652C79.8818 214.656 79.8818 219.528 76.8725 222.537V222.532Z" fill="currentColor"/>
<path d="M22.6638 230.707C21.1582 229.204 18.7171 229.204 17.2115 230.707C15.7059 232.21 15.7059 234.647 17.2115 236.15L28.9148 247.833C30.4204 249.336 32.8615 249.336 34.3671 247.833C35.8727 246.33 35.8727 243.893 34.3671 242.39L22.6638 230.707Z" fill="currentColor"/>
<path d="M43.3117 233.46L31.6104 221.775C28.4921 218.666 24.3489 216.951 19.9397 216.951C15.5305 216.951 11.3873 218.666 8.26898 221.775C1.83612 228.201 1.83612 238.65 8.26898 245.076L19.9746 256.757C23.0929 259.87 27.2361 261.586 31.6453 261.586C36.0546 261.586 40.1978 259.87 43.3117 256.757C49.7489 250.335 49.7489 239.882 43.3117 233.46ZM34.3711 247.832C34.1836 248.019 33.9786 248.185 33.7649 248.324C33.6602 248.394 33.5468 248.459 33.4378 248.52C33.3244 248.576 33.211 248.629 33.0933 248.677C32.9188 248.746 32.74 248.803 32.5612 248.851C32.5001 248.864 32.4434 248.877 32.3824 248.89C32.1381 248.934 31.8896 248.96 31.6453 248.96C31.4011 248.96 31.1525 248.934 30.9083 248.89C30.8167 248.873 30.7251 248.846 30.6379 248.825C30.5463 248.799 30.4591 248.772 30.3675 248.742C30.3108 248.72 30.2541 248.703 30.1974 248.677C30.1451 248.655 30.0884 248.633 30.036 248.607C29.975 248.581 29.9139 248.55 29.8528 248.52C29.7395 248.459 29.6304 248.394 29.5258 248.324C29.3077 248.185 29.1071 248.019 28.9195 247.832L17.2139 236.147C15.7093 234.644 15.7093 232.206 17.2139 230.704C17.3099 230.609 17.4058 230.521 17.5061 230.439C17.8114 230.191 18.1429 229.999 18.4918 229.86C18.579 229.825 18.6662 229.794 18.7578 229.764C18.845 229.733 18.9366 229.707 19.0238 229.686C19.0849 229.672 19.1416 229.659 19.2027 229.646C19.4469 229.603 19.6955 229.577 19.9397 229.577C20.1839 229.577 20.4325 229.603 20.6768 229.646C20.7683 229.664 20.8599 229.69 20.9472 229.712C21.0387 229.738 21.126 229.764 21.2176 229.794C21.2743 229.816 21.3353 229.838 21.392 229.86C21.4487 229.881 21.5054 229.908 21.5621 229.934C21.645 229.973 21.7322 230.012 21.8107 230.06C21.8238 230.064 21.8325 230.073 21.8456 230.077C21.9154 230.121 21.9895 230.164 22.0593 230.212C22.1029 230.238 22.1465 230.269 22.1901 230.304C22.2512 230.343 22.3122 230.391 22.3733 230.439C22.4736 230.521 22.5739 230.609 22.6655 230.704L34.3711 242.39C35.8757 243.892 35.8757 246.33 34.3711 247.832Z" fill="currentColor"/>
<path d="M100.214 90.4654C93.0567 95.3242 85.8083 100.644 78.5293 106.47C75.0185 109.274 71.5034 112.195 67.9838 115.243C65.2275 117.629 63.0774 120.424 61.5641 123.406C59.6625 127.137 58.751 131.151 58.8906 135.004L48.2448 145.632L20.686 173.143C15.0076 178.812 6.03215 175.198 6.88696 167.579C9.47754 144.574 21.8679 107.78 73.0124 94.7234C81.0763 92.6641 90.1085 91.1968 100.214 90.4654Z" fill="currentColor"/>
<path d="M103.384 83.9391C96.8905 84.2918 90.6801 84.9362 84.7575 85.8809C58.1844 90.091 37.4073 100.209 22.8364 116.066C7.27974 132.997 2.15963 153.042 0.607019 166.878C-0.064615 172.834 2.89232 178.311 8.14327 180.832C10.1189 181.785 12.221 182.247 14.3232 182.247C18.2221 182.247 22.1124 180.649 25.1565 177.606L60.5394 142.284C59.5276 140.016 58.9825 137.547 58.8909 135.004C58.7513 131.151 59.6628 127.137 61.5643 123.406L16.2116 168.681C15.2042 169.686 14.1923 169.73 13.6297 169.456C13.4073 169.351 13.0715 169.19 13.1718 168.284C14.5194 156.316 18.9069 139.023 32.1564 124.599C39.4135 116.706 48.5678 110.436 59.5582 105.83C67.6134 102.447 76.6543 99.9523 86.6546 98.3588L78.5296 106.47C85.8086 100.645 93.057 95.3242 100.214 90.4654C103.777 88.0404 107.314 85.7373 110.825 83.5386L103.384 83.9391Z" fill="currentColor"/>
<path d="M59.5579 105.83C51.4634 112.905 46.6181 122.801 46.2517 133.019C46.1863 134.865 46.2648 136.681 46.4916 138.453L61.5641 123.406C63.0775 120.424 65.2276 117.629 67.9839 115.243C71.5034 112.195 75.0186 109.274 78.5294 106.47L86.6544 98.3588C76.6541 99.9522 67.6132 102.447 59.5579 105.83ZM59.5579 105.83C51.4634 112.905 46.6181 122.801 46.2517 133.019C46.1863 134.865 46.2648 136.681 46.4916 138.453L61.5641 123.406C63.0775 120.424 65.2276 117.629 67.9839 115.243C71.5034 112.195 75.0186 109.274 78.5294 106.47L86.6544 98.3588C76.6541 99.9522 67.6132 102.447 59.5579 105.83ZM59.5579 105.83C51.4634 112.905 46.6181 122.801 46.2517 133.019C46.1863 134.865 46.2648 136.681 46.4916 138.453L61.5641 123.406C63.0775 120.424 65.2276 117.629 67.9839 115.243C71.5034 112.195 75.0186 109.274 78.5294 106.47L86.6544 98.3588C76.6541 99.9522 67.6132 102.447 59.5579 105.83ZM59.5579 105.83C51.4634 112.905 46.6181 122.801 46.2517 133.019C46.1863 134.865 46.2648 136.681 46.4916 138.453L61.5641 123.406C63.0775 120.424 65.2276 117.629 67.9839 115.243C71.5034 112.195 75.0186 109.274 78.5294 106.47L86.6544 98.3588C76.6541 99.9522 67.6132 102.447 59.5579 105.83ZM220.711 54.4294C212.961 43.5754 200.483 37.0971 187.338 37.0971C182.764 37.0971 178.197 37.872 173.766 39.3958C155.746 45.6043 137.899 53.5673 120.72 63.0585C108.36 69.8852 96.3364 77.5173 84.7573 85.8809C80.7886 88.7413 76.8721 91.6932 73.0124 94.7234C68.4942 98.2717 64.0544 101.933 59.7019 105.704C59.6539 105.747 59.6059 105.786 59.5579 105.83C51.4634 112.905 46.6181 122.801 46.2517 133.019C46.1863 134.865 46.2648 136.681 46.4916 138.453C46.8013 140.939 47.39 143.346 48.2448 145.632C49.0211 147.717 50.0242 149.707 51.2367 151.57C52.388 153.347 53.7313 155.01 55.2577 156.534L108.67 209.85C110.332 211.509 112.163 212.954 114.13 214.173C116.028 215.349 118.056 216.315 120.179 217.06C122.513 217.878 124.964 218.422 127.493 218.688C128.649 218.805 129.818 218.866 130.995 218.866C141.742 218.866 152.165 213.964 159.588 205.418C159.897 205.065 160.203 204.708 160.512 204.351C164.219 200.045 167.822 195.657 171.315 191.198C174.303 187.384 177.207 183.518 180.025 179.6C188.176 168.284 195.625 156.555 202.306 144.504C211.814 127.355 219.786 109.539 226.005 91.5495C230.402 78.8322 228.474 65.3007 220.711 54.4294ZM214.051 87.4308C207.575 106.169 197.614 129.031 182.38 153.429C180.142 157.013 177.792 160.626 175.323 164.266C167.996 175.081 159.61 186.113 150.028 197.146C149.705 197.52 149.374 197.881 149.034 198.234C148.907 198.365 148.781 198.495 148.65 198.621C148.584 198.687 148.519 198.752 148.453 198.817C148.131 199.131 147.799 199.44 147.463 199.736C147.285 199.893 147.106 200.049 146.923 200.202C146.561 200.507 146.19 200.803 145.815 201.086C145.44 201.373 145.06 201.643 144.677 201.9C144.485 202.03 144.288 202.161 144.092 202.283C143.8 202.47 143.503 202.653 143.207 202.823C142.91 202.997 142.609 203.167 142.308 203.323C141.907 203.541 141.502 203.741 141.092 203.933C140.786 204.077 140.477 204.212 140.167 204.342C139.857 204.473 139.548 204.595 139.234 204.712C138.401 205.026 137.559 205.287 136.713 205.505C136.29 205.614 135.867 205.709 135.444 205.796C135.016 205.879 134.593 205.953 134.17 206.014C133.747 206.075 133.32 206.123 132.897 206.158C132.269 206.214 131.645 206.241 131.022 206.241H131C130.062 206.241 129.129 206.18 128.213 206.058C127.908 206.014 127.602 205.966 127.301 205.914C127.149 205.888 126.996 205.857 126.848 205.827C126.547 205.762 126.25 205.696 125.954 205.622C125.657 205.544 125.365 205.461 125.073 205.374C124.541 205.213 124.017 205.026 123.503 204.817C121.34 203.937 119.342 202.644 117.619 200.925L64.207 147.604C62.6326 146.032 61.4158 144.234 60.5436 142.284C59.5318 140.016 58.9866 137.547 58.895 135.004C58.7555 131.151 59.667 127.137 61.5685 123.406C63.0818 120.424 65.2319 117.629 67.9883 115.243C71.5078 112.195 75.023 109.274 78.5338 106.47C85.8127 100.644 93.0611 95.3242 100.218 90.4654C103.781 88.0404 107.318 85.7372 110.829 83.5386C135.627 68 158.881 57.8862 177.896 51.3338C178.097 51.2642 178.298 51.1989 178.498 51.1336C178.899 51.003 179.296 50.8854 179.693 50.7766C180.09 50.6677 180.487 50.5632 180.884 50.4718C182.471 50.1017 184.05 49.8753 185.603 49.7752C185.991 49.7534 186.379 49.736 186.763 49.7273C186.959 49.7229 187.151 49.7229 187.343 49.7229C205.861 49.7229 220.698 68.2177 214.056 87.4308H214.051ZM59.5579 105.83C51.4634 112.905 46.6181 122.801 46.2517 133.019C46.1863 134.865 46.2648 136.681 46.4916 138.453L61.5641 123.406C63.0775 120.424 65.2276 117.629 67.9839 115.243C71.5034 112.195 75.0186 109.274 78.5294 106.47L86.6544 98.3588C76.6541 99.9522 67.6132 102.447 59.5579 105.83ZM59.5579 105.83C51.4634 112.905 46.6181 122.801 46.2517 133.019C46.1863 134.865 46.2648 136.681 46.4916 138.453L61.5641 123.406C63.0775 120.424 65.2276 117.629 67.9839 115.243C71.5034 112.195 75.0186 109.274 78.5294 106.47L86.6544 98.3588C76.6541 99.9522 67.6132 102.447 59.5579 105.83ZM59.5579 105.83C51.4634 112.905 46.6181 122.801 46.2517 133.019C46.1863 134.865 46.2648 136.681 46.4916 138.453L61.5641 123.406C63.0775 120.424 65.2276 117.629 67.9839 115.243C71.5034 112.195 75.0186 109.274 78.5294 106.47L86.6544 98.3588C76.6541 99.9522 67.6132 102.447 59.5579 105.83Z" fill="currentColor"/>
<path d="M187.879 106.296C179.902 114.254 166.971 114.254 158.994 106.296C151.018 98.3327 151.018 85.4194 158.994 77.4608C166.971 69.4977 179.902 69.4977 187.879 77.4608C195.856 85.4194 195.856 98.3327 187.879 106.296Z" fill="currentColor"/>
<path d="M175.323 164.27C174.66 174.249 173.278 183.192 171.315 191.198C158.541 243.369 121.248 255.93 98.0022 258.538C90.37 259.391 86.7501 250.431 92.4285 244.763L120.179 217.06L131.017 206.241C131.641 206.241 132.264 206.215 132.892 206.158C133.315 206.123 133.743 206.075 134.166 206.014C134.589 205.953 135.012 205.879 135.439 205.797C135.862 205.709 136.285 205.614 136.708 205.505C137.554 205.287 138.396 205.026 139.229 204.712C139.543 204.595 139.853 204.473 140.162 204.342C140.472 204.212 140.782 204.077 141.087 203.933C141.497 203.742 141.903 203.541 142.304 203.324C142.605 203.163 142.906 202.993 143.202 202.823C143.499 202.653 143.795 202.47 144.088 202.283C144.284 202.161 144.48 202.031 144.672 201.9C145.056 201.639 145.435 201.369 145.81 201.086C146.185 200.803 146.556 200.507 146.918 200.202C147.101 200.05 147.28 199.893 147.459 199.736C147.795 199.44 148.126 199.131 148.449 198.817C148.514 198.752 148.58 198.687 148.645 198.622C148.776 198.495 148.902 198.365 149.029 198.234C149.369 197.881 149.701 197.52 150.023 197.146C159.605 186.113 167.992 175.081 175.319 164.27H175.323Z" fill="currentColor"/>
<path d="M175.323 164.266C167.996 175.081 159.61 186.113 150.028 197.146C149.705 197.52 149.374 197.881 149.034 198.234C148.907 198.365 148.781 198.495 148.65 198.622C148.584 198.687 148.519 198.752 148.454 198.817C148.131 199.131 147.799 199.44 147.464 199.736C147.285 199.893 147.106 200.05 146.923 200.202C146.561 200.507 146.19 200.803 145.815 201.086C145.44 201.369 145.061 201.639 144.677 201.9C144.485 202.03 144.289 202.161 144.092 202.283C143.8 202.47 143.504 202.653 143.207 202.823C142.91 202.993 142.61 203.162 142.309 203.324C141.907 203.541 141.502 203.742 141.092 203.933C140.787 204.077 140.477 204.212 140.167 204.342C139.858 204.473 139.548 204.595 139.234 204.712C138.401 205.026 137.559 205.287 136.713 205.505C136.29 205.614 135.867 205.709 135.444 205.796C135.017 205.879 134.594 205.953 134.171 206.014C133.747 206.075 133.32 206.123 132.897 206.158C132.269 206.214 131.645 206.241 131.022 206.241H131C130.062 206.241 129.129 206.18 128.213 206.058C127.908 206.014 127.602 205.966 127.302 205.914C127.149 205.888 126.996 205.857 126.848 205.827C126.547 205.762 126.25 205.696 125.954 205.622C125.657 205.544 125.365 205.461 125.073 205.374C124.541 205.213 124.018 205.026 123.503 204.817L114.135 214.173L87.963 240.3C83.279 244.972 82.0099 251.642 84.7269 257.28C87.0166 262.034 91.7398 264.903 97.0519 264.903C97.597 264.903 98.1553 264.873 98.7135 264.812C122.173 262.178 163.6 249.312 177.46 192.7C178.481 188.521 179.344 184.145 180.029 179.6C180.762 174.806 181.298 169.821 181.638 164.688L182.384 153.43C180.147 157.013 177.796 160.626 175.328 164.266H175.323ZM133.774 212.419C134.214 212.375 134.65 212.323 135.073 212.262C135.562 212.192 136.076 212.105 136.639 211.996L136.717 211.979C137.276 211.866 137.79 211.748 138.288 211.617C139.378 211.339 140.446 210.999 141.449 210.625C141.842 210.477 142.234 210.324 142.631 210.155C143.015 209.994 143.403 209.824 143.765 209.654C144.332 209.388 144.843 209.131 145.296 208.888C145.649 208.696 146.003 208.5 146.347 208.3C146.696 208.1 147.058 207.878 147.468 207.621C147.581 207.547 147.699 207.473 147.813 207.399H147.935L149.627 206.123C150.08 205.783 150.543 205.413 150.974 205.048C151.188 204.869 151.397 204.691 151.602 204.508L151.65 204.469C152.043 204.12 152.453 203.742 152.863 203.341L153.085 203.119C153.255 202.958 153.421 202.784 153.587 202.614C154.027 202.157 154.433 201.713 154.808 201.282C158.467 197.067 162.03 192.761 165.489 188.386C165.384 188.826 165.279 189.265 165.17 189.701C163.901 194.886 162.349 199.771 160.513 204.351C154.721 218.814 146.133 230.208 134.877 238.341C121.728 247.841 107.183 251.154 97.3004 252.264C96.3889 252.364 96.2276 252.029 96.1229 251.807C95.8525 251.245 95.8918 250.231 96.8992 249.225L127.493 218.688L133.774 212.419Z" fill="currentColor"/>
<path d="M317.373 236.277C306.421 236.277 297.088 234.503 289.375 230.955C281.817 227.407 275.878 222.548 271.559 216.378C267.394 210.053 265.003 202.88 264.386 194.859L284.748 193.471C285.982 200.875 289.144 206.814 294.234 211.287C299.325 215.606 307.038 217.766 317.373 217.766C325.703 217.766 332.336 216.455 337.272 213.832C342.362 211.056 344.907 206.66 344.907 200.644C344.907 197.404 344.136 194.705 342.594 192.545C341.051 190.386 338.043 188.534 333.57 186.992C329.096 185.295 322.463 183.675 313.671 182.133C301.947 179.973 292.692 177.351 285.905 174.266C279.272 171.026 274.49 167.093 271.559 162.465C268.782 157.683 267.394 152.053 267.394 145.574C267.394 134.622 271.405 125.675 279.426 118.734C287.447 111.638 298.862 108.09 313.671 108.09C323.697 108.09 332.104 109.941 338.891 113.643C345.833 117.191 351.232 121.973 355.088 127.989C359.099 133.851 361.721 140.33 362.955 147.425L342.594 148.814C341.668 144.494 339.971 140.715 337.503 137.476C335.035 134.082 331.796 131.46 327.785 129.609C323.774 127.603 318.992 126.601 313.439 126.601C304.647 126.601 298.168 128.298 294.003 131.691C289.838 135.085 287.756 139.404 287.756 144.649C287.756 148.659 288.681 151.976 290.532 154.598C292.538 157.066 295.7 159.149 300.019 160.846C304.338 162.388 310.123 163.776 317.373 165.01C329.868 167.17 339.586 169.792 346.527 172.877C353.469 175.963 358.328 179.742 361.104 184.215C363.881 188.689 365.269 194.165 365.269 200.644C365.269 208.202 363.11 214.681 358.79 220.08C354.626 225.324 348.918 229.335 341.668 232.112C334.572 234.888 326.474 236.277 317.373 236.277ZM382.542 268.208V110.867H400.59L401.052 137.244L398.276 135.856C401.361 126.755 406.451 119.891 413.547 115.263C420.797 110.481 429.127 108.09 438.536 108.09C450.723 108.09 460.672 111.098 468.385 117.114C476.252 123.13 482.037 130.997 485.739 140.715C489.595 150.433 491.523 160.923 491.523 172.183C491.523 183.444 489.595 193.933 485.739 203.652C482.037 213.37 476.252 221.237 468.385 227.253C460.672 233.269 450.723 236.277 438.536 236.277C432.212 236.277 426.273 235.197 420.72 233.037C415.321 230.878 410.693 227.87 406.837 224.013C403.135 220.157 400.59 215.606 399.201 210.362L401.978 207.122V268.208H382.542ZM436.685 217.766C447.329 217.766 455.736 213.755 461.906 205.734C468.076 197.713 471.162 186.529 471.162 172.183C471.162 157.838 468.076 146.654 461.906 138.633C455.736 130.611 447.329 126.601 436.685 126.601C429.59 126.601 423.419 128.298 418.175 131.691C413.084 135.085 409.074 140.175 406.143 146.963C403.366 153.75 401.978 162.157 401.978 172.183C401.978 182.21 403.366 190.617 406.143 197.404C408.919 204.191 412.93 209.282 418.175 212.675C423.419 216.069 429.59 217.766 436.685 217.766ZM544.888 236.277C532.239 236.277 522.135 233.346 514.577 227.484C507.172 221.622 503.47 213.447 503.47 202.957C503.47 192.468 506.555 184.215 512.726 178.199C518.896 172.183 528.691 167.941 542.111 165.473L585.611 157.375C585.611 147.04 583.143 139.327 578.207 134.236C573.425 129.146 566.175 126.601 556.457 126.601C547.973 126.601 541.263 128.529 536.327 132.385C531.391 136.088 527.997 141.486 526.146 148.582L505.553 146.963C507.867 135.393 513.42 126.061 522.212 118.965C531.159 111.715 542.574 108.09 556.457 108.09C572.191 108.09 584.223 112.564 592.553 121.51C600.883 130.303 605.048 142.489 605.048 158.069V208.742C605.048 211.519 605.51 213.524 606.436 214.758C607.516 215.838 609.213 216.378 611.526 216.378H616.385V233.5C615.768 233.654 614.766 233.731 613.377 233.731C611.989 233.886 610.524 233.963 608.981 233.963C603.428 233.963 598.877 233.114 595.33 231.418C591.936 229.566 589.468 226.79 587.925 223.088C586.383 219.231 585.611 214.218 585.611 208.048L587.925 208.511C586.845 213.755 584.223 218.537 580.058 222.856C575.893 227.021 570.726 230.338 564.556 232.806C558.385 235.12 551.829 236.277 544.888 236.277ZM546.739 219.154C554.915 219.154 561.856 217.612 567.564 214.527C573.425 211.287 577.899 206.968 580.984 201.569C584.069 196.016 585.611 189.846 585.611 183.058V174.266L545.813 181.67C537.484 183.213 531.699 185.604 528.46 188.843C525.375 191.928 523.832 196.016 523.832 201.106C523.832 206.814 525.837 211.287 529.848 214.527C534.013 217.612 539.643 219.154 546.739 219.154ZM676.527 236.277C665.112 236.277 655.163 233.654 646.679 228.41C638.349 223.165 631.87 215.761 627.242 206.197C622.615 196.479 620.301 185.141 620.301 172.183C620.301 159.226 622.615 147.965 627.242 138.401C631.87 128.837 638.349 121.433 646.679 116.189C655.163 110.79 665.112 108.09 676.527 108.09C685.937 108.09 694.266 109.787 701.517 113.181C708.921 116.42 714.937 121.202 719.564 127.526C724.192 133.851 727.2 141.564 728.588 150.665L708.227 152.053C706.838 143.877 703.29 137.63 697.583 133.311C691.876 128.837 684.857 126.601 676.527 126.601C665.266 126.601 656.474 130.689 650.149 138.864C643.825 146.885 640.663 157.992 640.663 172.183C640.663 186.375 643.825 197.558 650.149 205.734C656.474 213.755 665.266 217.766 676.527 217.766C684.857 217.766 691.876 215.452 697.583 210.824C703.29 206.197 706.838 199.255 708.227 190L728.588 191.388C727.2 200.489 724.192 208.433 719.564 215.221C714.937 221.854 708.921 227.021 701.517 230.723C694.266 234.426 685.937 236.277 676.527 236.277ZM743.428 233.5V110.867H762.864V233.5H743.428ZM742.965 91.6619V68.9863H763.327V91.6619H742.965ZM836.299 236.277C825.039 236.277 815.166 233.654 806.682 228.41C798.198 223.165 791.642 215.761 787.015 206.197C782.387 196.479 780.073 185.141 780.073 172.183C780.073 159.072 782.387 147.734 787.015 138.17C791.642 128.606 798.198 121.202 806.682 115.957C815.166 110.712 825.039 108.09 836.299 108.09C847.56 108.09 857.355 110.712 865.685 115.957C874.169 121.202 880.725 128.606 885.353 138.17C889.98 147.734 892.294 159.072 892.294 172.183C892.294 185.141 889.98 196.479 885.353 206.197C880.725 215.761 874.169 223.165 865.685 228.41C857.355 233.654 847.56 236.277 836.299 236.277ZM836.299 217.766C847.56 217.766 856.275 213.755 862.446 205.734C868.77 197.558 871.932 186.375 871.932 172.183C871.932 157.992 868.77 146.885 862.446 138.864C856.275 130.689 847.56 126.601 836.299 126.601C825.039 126.601 816.246 130.689 809.922 138.864C803.597 146.885 800.435 157.992 800.435 172.183C800.435 186.375 803.597 197.558 809.922 205.734C816.246 213.755 825.039 217.766 836.299 217.766Z" fill="currentColor"/>
</svg>
